<svg xmlns="http://www.w3.org/2000/svg" viewBox="0 0 64 64" aria-hidden="true">
  <rect width="64" height="64" rx="14" fill="#0f172a"/>
  <path
    d="M14 36c0-6 4-10 10-10 1-6 6-10 12-10 7 0 12 4 14 10 5 1 8 5 8 10 0 6-5 11-11 11H25c-6 0-11-5-11-11Z"
    fill="none"
    stroke="#22d3ee"
    stroke-width="2.6"
  />
  <path d="M20 37c4-3 9-4 14-3 4 0 8-1 12-4" fill="none" stroke="#67e8f9" stroke-width="2" stroke-linecap="round"/>
  <path d="M21 42c5-2 10-2 15-1 4 1 8 0 11-2" fill="none" stroke="#a5f3fc" stroke-width="1.8" stroke-linecap="round" opacity="0.9"/>
  <circle cx="23" cy="27" r="2.1" fill="#22d3ee"/>
  <circle cx="33" cy="24" r="2.1" fill="#22d3ee"/>
  <circle cx="43" cy="28" r="2.1" fill="#22d3ee"/>
  <path d="M23 27h10M33 24l10 4" stroke="#22d3ee" stroke-width="1.5" fill="none"/>
</svg>
