<svg xmlns="http://www.w3.org/2000/svg" viewBox="0 0 64 64" aria-hidden="true">
  <rect width="64" height="64" rx="14" fill="#0f172a"/>
  <g opacity="0.22" stroke="#67e8f9" stroke-width="1">
    <path d="M12 20h40M12 32h40M12 44h40M20 12v40M32 12v40M44 12v40"/>
  </g>
  <path
    d="M22 46V18h10c5 0 8 3 8 7 0 3-2 5-4 6 3 1 5 3 5 7 0 5-4 8-9 8H22Zm6-17h3c2 0 3-1 3-2.5S33 24 31 24h-3v5Zm0 11h4c2 0 3-1 3-3s-1-3-3-3h-4v6Z"
    fill="#22d3ee"
  />
  <path
    d="M50 22c-1.5-2.5-4-4-7-4-4 0-7 2.5-7 6 0 4.5 4 5.5 7 6.5 2.5.8 4 1.4 4 3.2 0 1.6-1.5 2.8-3.6 2.8-2.3 0-4-.9-5.7-2.5l-3.1 4c2.3 2.3 5.3 3.5 8.8 3.5 5.7 0 9.4-3 9.4-7.9 0-5.2-4.2-6.8-7.6-7.8-2.2-.7-3.6-1.2-3.6-2.6 0-1.3 1.2-2.2 3-2.2 1.8 0 3.5.7 5 2.1l3.4-3.1Z"
    fill="#67e8f9"
  />
</svg>
